<?xml version="1.0" standalone="no"?>
<!DOCTYPE svg PUBLIC "-//W3C//DTD SVG 20010904//EN"
 "http://www.w3.org/TR/2001/REC-SVG-20010904/DTD/svg10.dtd">
<svg version="1.0" xmlns="http://www.w3.org/2000/svg"
 width="600.000000pt" height="600.000000pt" viewBox="0 0 600.000000 600.000000"
 preserveAspectRatio="xMidYMid meet">
<metadata>
Created by potrace 1.14, written by Peter Selinger 2001-2017
</metadata>
<g transform="translate(0.000000,600.000000) scale(0.100000,-0.100000)"
fill="#000000" stroke="none">
<path d="M2565 5409 c-676 -3 -1423 -7 -1660 -8 l-430 -1 -203 -366 -202 -366
1097 -1996 c603 -1099 1099 -2007 1101 -2019 l4 -23 1642 0 1641 0 188 340
c169 307 204 380 179 380 -5 0 -93 165 -197 367 l-190 366 -813 -6 -813 -6 34
62 c19 34 341 617 716 1295 l681 1232 -197 380 -196 380 -576 -2 c-317 -1
-1129 -5 -1806 -9z m2735 -754 c0 -2 -412 -750 -915 -1661 -503 -910 -915
-1660 -915 -1665 0 -5 477 -9 1210 -9 666 0 1210 -2 1210 -5 0 -7 -350 -639
-359 -648 -4 -4 -735 -6 -1624 -5 l-1616 3 924 1644 c508 905 922 1649 919
1653 -3 4 -468 8 -1033 8 l-1027 0 -189 338 c-103 185 -190 340 -192 345 -2 4
808 7 1801 7 993 0 1806 -2 1806 -5z m-2042 -813 c-350 -648 -544 -1002 -548
-1001 -4 0 -340 595 -583 1031 l-38 68 611 0 611 0 -53 -98z"/>
</g>
</svg>
